<svg width="20" height="20" viewBox="0 0 20 20" fill="none" xmlns="http://www.w3.org/2000/svg">
<path fill-rule="evenodd" clip-rule="evenodd" d="M3.33268 4.16675C3.33268 3.70651 3.70578 3.33341 4.16602 3.33341H15.8327C16.2929 3.33341 16.666 3.70651 16.666 4.16675V15.8334C16.666 16.2937 16.2929 16.6667 15.8327 16.6667L14.9993 16.6667C14.9993 14.3656 13.1339 12.5001 10.8327 12.5001H9.16602C6.86483 12.5001 4.99935 14.3656 4.99935 16.6667L4.16602 16.6667C3.70578 16.6667 3.33268 16.2937 3.33268 15.8334V4.16675ZM6.66602 16.6667H13.3327C13.3327 15.286 12.2134 14.1667 10.8327 14.1667H9.16602C7.7853 14.1667 6.66602 15.286 6.66602 16.6667ZM4.16602 1.66675C2.7853 1.66675 1.66602 2.78604 1.66602 4.16675V15.8334C1.66602 17.2141 2.7853 18.3334 4.16602 18.3334H15.8327C17.2134 18.3334 18.3327 17.2141 18.3327 15.8334V4.16675C18.3327 2.78604 17.2134 1.66675 15.8327 1.66675H4.16602ZM8.33268 8.33341C8.33268 9.25389 9.07887 10.0001 9.99935 10.0001C10.9198 10.0001 11.666 9.25389 11.666 8.33341C11.666 7.41294 10.9198 6.66675 9.99935 6.66675C9.07887 6.66675 8.33268 7.41294 8.33268 8.33341ZM9.99935 5.00008C8.1584 5.00008 6.66602 6.49247 6.66602 8.33341C6.66602 10.1744 8.1584 11.6667 9.99935 11.6667C11.8403 11.6667 13.3327 10.1744 13.3327 8.33341C13.3327 6.49247 11.8403 5.00008 9.99935 5.00008Z" fill="#141313"/>
</svg>
